STARTFONT 2.1
COMMENT This font is still under development.
COMMENT You can use, copy, modify, distribute this file for free.
COMMENT
COMMENT This font was automatically resized by bdfresize
COMMENT mag_x = 3/2, mag_y = 36/25, threshold = 20%
COMMENT 
COMMENT 94.05.10 created by TAKAHASHI N. <ntakahas@etl.go.jp>
COMMENT   - double column Arabic characters for Mule
COMMENT 94.09.14 modified by TAKAHASHI N. <ntakahas@etl.go.jp>
COMMENT 
FONT -ETL-Fixed-Medium-R-Normal--24-240-72-72-C-240-MuleArabic-2
SIZE 24 72 72
FONTBOUNDINGBOX 24 36 0 -15
STARTPROPERTIES 18
FONTNAME_REGISTRY ""
FOUNDRY "ETL"
FAMILY_NAME "Fixed"
WEIGHT_NAME "Medium"
SLANT "R"
SETWIDITH_NAME "Normal"
ADD_STYLE_NAME ""
PIXEL_SIZE 24
POINT_SIZE 240
RESOLUTION_X 72
RESOLUTION_Y 72
SPACING "C"
AVERAGE_WIDTH 240
CHARSET_REGISTRY "MuleArabic"
CHARSET_ENCODING "2"
DEFAULT_CHAR 33
FONT_ASCENT 21
FONT_DESCENT 15
ENDPROPERTIES
CHARS 78
STARTCHAR hamza on yaa isolated
ENCODING 33
SWIDTH 1000 0
DWIDTH 24 0
BBX 24 36 0 -16
BITMAP
000000
000000
000000
000000
000000
000000
000000
000000
00e000
018000
01e000
00c000
018000
0100f0
0003f8
0007d8
000e00
000c00
040c00
0c0e00
080f80
180fe0
1803f0
180078
180038
1c0018
1f0078
0ffff8
0ffff0
03ffc0
00ff00
000000
000000
000000
000000
000000
ENDCHAR
STARTCHAR hamza on yaa final
ENCODING 34
SWIDTH 1000 0
DWIDTH 24 0
BBX 24 36 0 -16
BITMAP
000000
000000
000000
000000
000000
000000
000000
000000
000000
000000
000e00
001800
001e00
000c00
001800
001000
000000
00000f
04003f
0c007f
080078
18007c
18001e
180007
180003
1c0007
1f003f
0ffffe
0ffffc
03fff0
007f80
000000
000000
000000
000000
000000
ENDCHAR
STARTCHAR baa isolated
ENCODING 35
SWIDTH 1000 0
DWIDTH 24 0
BBX 24 36 0 -16
BITMAP
000000
000000
000000
000000
000000
000000
000000
000000
000000
000000
040000
0c0030
080038
180018
180018
180018
1e0078
0ffff0
07ffe0
01ff80
000000
000000
000000
000800
001c00
003e00
001c00
000800
000000
000000
000000
000000
000000
000000
000000
000000
ENDCHAR
STARTCHAR baa final
ENCODING 36
SWIDTH 1000 0
DWIDTH 24 0
BBX 24 36 0 -16
BITMAP
000000
000000
000000
000000
000000
000000
000000
000000
000000
000000
040000
0c0000
080000
180008
180018
180018
1e007c
0fffff
07ffef
01ff83
000000
000000
000000
000800
001c00
003e00
001c00
000800
000000
000000
000000
000000
000000
000000
000000
000000
ENDCHAR
STARTCHAR taa isolated
ENCODING 37
SWIDTH 1000 0
DWIDTH 24 0
BBX 24 36 0 -16
BITMAP
000000
000000
000000
000000
002100
007380
00ffc0
007380
002100
000000
040000
0c0030
080038
180018
180018
180018
1e0078
0ffff0
07ffe0
01ff80
000000
000000
000000
000000
000000
000000
000000
000000
000000
000000
000000
000000
000000
000000
000000
000000
ENDCHAR
STARTCHAR taa final
ENCODING 38
SWIDTH 1000 0
DWIDTH 24 0
BBX 24 36 0 -16
BITMAP
000000
000000
000000
000000
002100
007380
00ffc0
007380
002100
000000
040000
0c0000
080000
180008
180018
180018
1e007c
0fffff
07ffef
01ff83
000000
000000
000000
000000
000000
000000
000000
000000
000000
000000
000000
000000
000000
000000
000000
000000
ENDCHAR
STARTCHAR thaa isolated
ENCODING 39
SWIDTH 1000 0
DWIDTH 24 0
BBX 24 36 0 -16
BITMAP
000000
000800
001c00
003e00
001c00
000800
002200
007700
00ff80
007700
042200
0c0030
080038
180018
180018
180018
1e0078
0ffff0
07ffe0
01ff80
000000
000000
000000
000000
000000
000000
000000
000000
000000
000000
000000
000000
000000
000000
000000
000000
ENDCHAR
STARTCHAR thaa final
ENCODING 40
SWIDTH 1000 0
DWIDTH 24 0
BBX 24 36 0 -16
BITMAP
000000
000800
001c00
003e00
001c00
000800
002200
007700
00ff80
007700
042200
0c0000
080000
180008
180018
180018
1e007c
0fffff
07ffef
01ff83
000000
000000
000000
000000
000000
000000
000000
000000
000000
000000
000000
000000
000000
000000
000000
000000
ENDCHAR
STARTCHAR jiim isolated
ENCODING 41
SWIDTH 1000 0
DWIDTH 24 0
BBX 24 36 0 -16
BITMAP
000000
000000
000000
000000
000000
000000
000000
000000
000000
000000
000000
000000
070000
0ffff8
1dfff0
107fc0
00f000
00e000
01c000
018000
038200
030700
030f80
030700
030200
030000
038000
01e018
01fff0
007fe0
001f80
000000
000000
000000
000000
000000
ENDCHAR
STARTCHAR jiim initial
ENCODING 42
SWIDTH 1000 0
DWIDTH 24 0
BBX 24 36 0 -16
BITMAP
000000
000000
000000
000000
000000
000000
000000
000000
000000
000000
000000
000000
00fc00
03ff00
020780
0001e0
001ff8
fffff0
ffff00
fff000
000000
000000
000800
001c00
003e00
001c00
000800
000000
000000
000000
000000
000000
000000
000000
000000
000000
ENDCHAR
STARTCHAR jiim medial
ENCODING 43
SWIDTH 1000 0
DWIDTH 24 0
BBX 24 36 0 -16
BITMAP
000000
000000
000000
000000
000000
000000
000000
000000
000000
000000
07e000
0ff800
083fc0
000fe0
000780
001e00
007e00
ffffff
ffe3ff
ff81ff
000000
000000
000800
001c00
003e00
001c00
000800
000000
000000
000000
000000
000000
000000
000000
000000
000000
ENDCHAR
STARTCHAR jiim final
ENCODING 44
SWIDTH 1000 0
DWIDTH 24 0
BBX 24 36 0 -16
BITMAP
000000
000000
000000
000000
000000
000000
000000
000000
000000
000000
000000
000000
070000
0ffff8
1dfff0
107fe0
00f0c0
00e0ff
01c07f
01801f
038200
030700
030f80
030700
030200
030000
038000
01e018
01fff0
007fe0
001f80
000000
000000
000000
000000
000000
ENDCHAR
STARTCHAR Haa isolated
ENCODING 45
SWIDTH 1000 0
DWIDTH 24 0
BBX 24 36 0 -16
BITMAP
000000
000000
000000
000000
000000
000000
000000
000000
000000
000000
000000
000000
070000
0ffff8
1dfff0
107fc0
00f000
00e000
01c000
018000
038000
030000
030000
030000
030000
030000
038000
01e018
01fff0
007fe0
001f80
000000
000000
000000
000000
000000
ENDCHAR
STARTCHAR Haa initial
ENCODING 46
SWIDTH 1000 0
DWIDTH 24 0
BBX 24 36 0 -16
BITMAP
000000
000000
000000
000000
000000
000000
000000
000000
000000
000000
000000
000000
00fc00
03ff00
020780
0001e0
001ff8
fffff0
ffff00
fff000
000000
000000
000000
000000
000000
000000
000000
000000
000000
000000
000000
000000
000000
000000
000000
000000
ENDCHAR
STARTCHAR Haa medial
ENCODING 47
SWIDTH 1000 0
DWIDTH 24 0
BBX 24 36 0 -16
BITMAP
000000
000000
000000
000000
000000
000000
000000
000000
000000
000000
07e000
0ff800
083fc0
000fe0
000780
001e00
007e00
ffffff
ffe3ff
ff81ff
000000
000000
000000
000000
000000
000000
000000
000000
000000
000000
000000
000000
000000
000000
000000
000000
ENDCHAR
STARTCHAR Haa final
ENCODING 48
SWIDTH 1000 0
DWIDTH 24 0
BBX 24 36 0 -16
BITMAP
000000
000000
000000
000000
000000
000000
000000
000000
000000
000000
000000
000000
070000
0ffff8
1dfff0
107fe0
00f0c0
00e0ff
01c07f
01801f
038000
030000
030000
030000
030000
030000
038000
01e018
01fff0
007fe0
001f80
000000
000000
000000
000000
000000
ENDCHAR
STARTCHAR khaa isolated
ENCODING 49
SWIDTH 1000 0
DWIDTH 24 0
BBX 24 36 0 -16
BITMAP
000000
000000
000000
000000
000000
000800
001c00
003e00
001c00
000800
000000
000000
070000
0ffff8
1dfff0
107fc0
00f000
00e000
01c000
018000
038000
030000
030000
030000
030000
030000
038000
01e018
01fff0
007fe0
001f80
000000
000000
000000
000000
000000
ENDCHAR
STARTCHAR khaa initial
ENCODING 50
SWIDTH 1000 0
DWIDTH 24 0
BBX 24 36 0 -16
BITMAP
000000
000000
000000
000000
000800
001c00
003e00
001c00
000800
000000
000000
000000
01fc00
03ff00
020780
0001e0
001ff8
fffff0
ffff00
fff000
000000
000000
000000
000000
000000
000000
000000
000000
000000
000000
000000
000000
000000
000000
000000
000000
ENDCHAR
STARTCHAR khaa medial
ENCODING 51
SWIDTH 1000 0
DWIDTH 24 0
BBX 24 36 0 -16
BITMAP
000000
000000
000000
000800
001c00
003e00
001c00
000800
000000
000000
07e000
0ff800
083fc0
000fe0
000780
001e00
007e00
ffffff
ffe3ff
ff81ff
000000
000000
000000
000000
000000
000000
000000
000000
000000
000000
000000
000000
000000
000000
000000
000000
ENDCHAR
STARTCHAR khaa final
ENCODING 52
SWIDTH 1000 0
DWIDTH 24 0
BBX 24 36 0 -16
BITMAP
000000
000000
000000
000000
000000
000800
001c00
003e00
001c00
000800
000000
000000
070000
0ffff8
1dfff0
107fe0
00f0c0
00e0ff
01c07f
01801f
038000
030000
030000
030000
030000
030000
038000
01e018
01fff0
007fe0
001f80
000000
000000
000000
000000
000000
ENDCHAR
STARTCHAR siin isolated
ENCODING 53
SWIDTH 1000 0
DWIDTH 24 0
BBX 24 36 0 -16
BITMAP
000000
000000
000000
000000
000000
000000
000000
000000
000000
000000
000000
000000
000000
00000c
000846
0018c6
0818c6
181ffe
301ffc
601f38
601800
603800
707000
7ff000
3fe000
0f8000
000000
000000
000000
000000
000000
000000
000000
000000
000000
000000
ENDCHAR
STARTCHAR siin initial
ENCODING 54
SWIDTH 1000 0
DWIDTH 24 0
BBX 24 36 0 -16
BITMAP
000000
000000
000000
000000
000000
000000
000000
000000
000000
000000
000000
000000
000000
000030
008218
018618
018618
fffff8
fffff0
fe79e0
000000
000000
000000
000000
000000
000000
000000
000000
000000
000000
000000
000000
000000
000000
000000
000000
ENDCHAR
STARTCHAR siin medial
ENCODING 55
SWIDTH 1000 0
DWIDTH 24 0
BBX 24 36 0 -16
BITMAP
000000
000000
000000
000000
000000
000000
000000
000000
000000
000000
000000
000000
000000
000000
020820
061860
061860
ffffff
ffffff
f9e79f
000000
000000
000000
000000
000000
000000
000000
000000
000000
000000
000000
000000
000000
000000
000000
000000
ENDCHAR
STARTCHAR siin final
ENCODING 56
SWIDTH 1000 0
DWIDTH 24 0
BBX 24 36 0 -16
BITMAP
000000
000000
000000
000000
000000
000000
000000
000000
000000
000000
000000
000000
000000
000000
001088
003198
083198
183fff
303fff
603e67
603000
607000
70e000
7fe000
3fc000
0f0000
000000
000000
000000
000000
000000
000000
000000
000000
000000
000000
ENDCHAR
STARTCHAR shiin isolated
ENCODING 57
SWIDTH 1000 0
DWIDTH 24 0
BBX 24 36 0 -16
BITMAP
000000
000000
000080
0001c0
0003e0
0001c0
000080
000220
000770
000ff8
000770
000220
000000
00000c
000846
0018c6
0818c6
181ffe
301ffc
601f38
601800
603800
707000
7ff000
3fe000
0f8000
000000
000000
000000
000000
000000
000000
000000
000000
000000
000000
ENDCHAR
STARTCHAR shiin initial
ENCODING 58
SWIDTH 1000 0
DWIDTH 24 0
BBX 24 36 0 -16
BITMAP
000000
000000
000400
000e00
001f00
000e00
000400
001100
003b80
007fc0
003b80
001100
000000
000030
008218
018618
018618
fffff8
fffff0
fe78e0
000000
000000
000000
000000
000000
000000
000000
000000
000000
000000
000000
000000
000000
000000
000000
000000
ENDCHAR
STARTCHAR shiin medial
ENCODING 59
SWIDTH 1000 0
DWIDTH 24 0
BBX 24 36 0 -16
BITMAP
000000
000000
001000
003800
007c00
003800
001000
004400
00ee00
01ff00
00ee00
004400
000000
000000
020820
061860
061860
ffffff
ffffff
f9e79f
000000
000000
000000
000000
000000
000000
000000
000000
000000
000000
000000
000000
000000
000000
000000
000000
ENDCHAR
STARTCHAR shiin final
ENCODING 60
SWIDTH 1000 0
DWIDTH 24 0
BBX 24 36 0 -16
BITMAP
000000
000000
000080
0001c0
0003e0
0001c0
000080
000220
000770
000ff8
000770
000220
000000
000000
001088
003198
083198
183fff
303fff
603e67
603000
607000
70e000
7fe000
3fc000
0f0000
000000
000000
000000
000000
000000
000000
000000
000000
000000
000000
ENDCHAR
STARTCHAR Saad isolated
ENCODING 61
SWIDTH 1000 0
DWIDTH 24 0
BBX 24 36 0 -16
BITMAP
000000
000000
000000
000000
000000
000000
000000
000000
000000
000000
000000
0000f8
0001fc
0003fe
00230e
006606
087c06
183ffe
303ffc
603ff0
603000
607000
70e000
7fe000
3fc000
0f0000
000000
000000
000000
000000
000000
000000
000000
000000
000000
000000
ENDCHAR
STARTCHAR Saad initial
ENCODING 62
SWIDTH 1000 0
DWIDTH 24 0
BBX 24 36 0 -16
BITMAP
000000
000000
000000
000000
000000
000000
000000
000000
000000
000000
000000
0003e0
0007f0
000ff8
001c38
043018
0c6018
fffff8
fffff0
f3ffc0
030000
020000
000000
000000
000000
000000
000000
000000
000000
000000
000000
000000
000000
000000
000000
000000
ENDCHAR
STARTCHAR Saad medial
ENCODING 63
SWIDTH 1000 0
DWIDTH 24 0
BBX 24 36 0 -16
BITMAP
000000
000000
000000
000000
000000
000000
000000
000000
000000
000000
000000
0003e0
0007f0
000ff8
001c38
043018
0c6030
ffffff
ffffff
f3ffff
030000
020000
000000
000000
000000
000000
000000
000000
000000
000000
000000
000000
000000
000000
000000
000000
ENDCHAR
STARTCHAR Saad final
ENCODING 64
SWIDTH 1000 0
DWIDTH 24 0
BBX 24 36 0 -16
BITMAP
000000
000000
000000
000000
000000
000000
000000
000000
000000
000000
000000
0000f8
0001fc
0003fe
00230e
006606
087c0c
183fff
303fff
603fff
603000
607000
70e000
7fe000
3fc000
0f0000
000000
000000
000000
000000
000000
000000
000000
000000
000000
000000
ENDCHAR
STARTCHAR Daad isolated
ENCODING 65
SWIDTH 1000 0
DWIDTH 24 0
BBX 24 36 0 -16
BITMAP
000000
000000
000000
000000
000000
000000
000800
001c00
003e00
001c00
000800
0000f8
0001fc
0003fe
00230e
006606
087c06
183ffe
303ffc
603ff0
603000
607000
70e000
7fe000
3fc000
0f0000
000000
000000
000000
000000
000000
000000
000000
000000
000000
000000
ENDCHAR
STARTCHAR Daad initial
ENCODING 66
SWIDTH 1000 0
DWIDTH 24 0
BBX 24 36 0 -16
BITMAP
000000
000000
000000
000000
000000
000000
000000
008000
01c000
03e000
01c000
0083e0
0007f0
000ff8
001c38
043018
0c6018
fffff8
fffff0
f3ffc0
030000
020000
000000
000000
000000
000000
000000
000000
000000
000000
000000
000000
000000
000000
000000
000000
ENDCHAR
STARTCHAR Daad medial
ENCODING 67
SWIDTH 1000 0
DWIDTH 24 0
BBX 24 36 0 -16
BITMAP
000000
000000
000000
000000
000000
000000
000000
008000
01c000
03e000
01c000
0083e0
0007f0
000ff8
001c38
043018
0c6030
ffffff
ffffff
f3ffff
030000
020000
000000
000000
000000
000000
000000
000000
000000
000000
000000
000000
000000
000000
000000
000000
ENDCHAR
STARTCHAR Daad final
ENCODING 68
SWIDTH 1000 0
DWIDTH 24 0
BBX 24 36 0 -16
BITMAP
000000
000000
000000
000000
000000
000000
000800
001c00
003e00
001c00
000800
0000f8
0001fc
0003fe
00230e
006606
087c0c
183fff
303fff
603fff
603000
607000
70e000
7fe000
3fc000
0f0000
000000
000000
000000
000000
000000
000000
000000
000000
000000
000000
ENDCHAR
STARTCHAR Taa isolated
ENCODING 69
SWIDTH 1000 0
DWIDTH 24 0
BBX 24 36 0 -16
BITMAP
000000
000000
000000
006000
006000
007000
007000
006000
006000
006000
006000
0063e0
0067f0
006e38
007c18
007818
007018
3ffff8
1ffff0
07ffe0
000000
000000
000000
000000
000000
000000
000000
000000
000000
000000
000000
000000
000000
000000
000000
000000
ENDCHAR
STARTCHAR Taa initial
ENCODING 70
SWIDTH 1000 0
DWIDTH 24 0
BBX 24 36 0 -16
BITMAP
000000
000000
000000
006000
006000
007000
007000
006000
006000
006000
006000
0063e0
0067f0
006e38
007c18
007818
007018
fffff8
fffff0
ffffe0
000000
000000
000000
000000
000000
000000
000000
000000
000000
000000
000000
000000
000000
000000
000000
000000
ENDCHAR
STARTCHAR Taa medial
ENCODING 71
SWIDTH 1000 0
DWIDTH 24 0
BBX 24 36 0 -16
BITMAP
000000
000000
000000
018000
018000
01c000
01c000
018000
018000
018000
018000
018f80
019fc0
01b8e0
01f060
01e060
01c0c0
ffffff
ffffff
ffffff
000000
000000
000000
000000
000000
000000
000000
000000
000000
000000
000000
000000
000000
000000
000000
000000
ENDCHAR
STARTCHAR Taa final
ENCODING 72
SWIDTH 1000 0
DWIDTH 24 0
BBX 24 36 0 -16
BITMAP
000000
000000
000000
006000
006000
007000
007000
006000
006000
006000
006000
0063e0
0067f0
006e38
007c18
007818
007030
3fffff
1fffff
07ffff
000000
000000
000000
000000
000000
000000
000000
000000
000000
000000
000000
000000
000000
000000
000000
000000
ENDCHAR
STARTCHAR Zaa isolated
ENCODING 73
SWIDTH 1000 0
DWIDTH 24 0
BBX 24 36 0 -16
BITMAP
000000
000000
000000
006000
006040
0070e0
0071f0
0060e0
006040
006000
006000
0063e0
0067f0
006e38
007c18
007818
007018
3ffff8
1ffff0
07ffe0
000000
000000
000000
000000
000000
000000
000000
000000
000000
000000
000000
000000
000000
000000
000000
000000
ENDCHAR
STARTCHAR Zaa initial
ENCODING 74
SWIDTH 1000 0
DWIDTH 24 0
BBX 24 36 0 -16
BITMAP
000000
000000
000000
006000
006040
0070e0
0071f0
0060e0
006040
006000
006000
0063e0
0067f0
006e38
007c18
007818
007018
fffff8
fffff0
ffffe0
000000
000000
000000
000000
000000
000000
000000
000000
000000
000000
000000
000000
000000
000000
000000
000000
ENDCHAR
STARTCHAR Zaa medial
ENCODING 75
SWIDTH 1000 0
DWIDTH 24 0
BBX 24 36 0 -16
BITMAP
000000
000000
000000
018000
018100
01c380
01c7c0
018380
018100
018000
018000
018f80
019fc0
01b8e0
01f060
01e060
01c0c0
ffffff
ffffff
ffffff
000000
000000
000000
000000
000000
000000
000000
000000
000000
000000
000000
000000
000000
000000
000000
000000
ENDCHAR
STARTCHAR Zaa final
ENCODING 76
SWIDTH 1000 0
DWIDTH 24 0
BBX 24 36 0 -16
BITMAP
000000
000000
000000
006000
006040
0070e0
0071f0
0060e0
006040
006000
006000
0063e0
0067f0
006e38
007c18
007818
007030
3fffff
1fffff
07ffff
000000
000000
000000
000000
000000
000000
000000
000000
000000
000000
000000
000000
000000
000000
000000
000000
ENDCHAR
STARTCHAR ayn isolated
ENCODING 77
SWIDTH 1000 0
DWIDTH 24 0
BBX 24 36 0 -16
BITMAP
000000
000000
000000
000000
000000
000000
000000
000000
000000
000000
00f800
01fc00
038000
030000
030000
038300
01ff00
00fc00
00f000
01c000
038000
070000
060000
060000
060000
060000
070000
038030
03ffe0
01ffc0
007f00
000000
000000
000000
000000
000000
ENDCHAR
STARTCHAR ayn final
ENCODING 78
SWIDTH 1000 0
DWIDTH 24 0
BBX 24 36 0 -16
BITMAP
000000
000000
000000
000000
000000
000000
000000
000000
000000
000000
000000
000000
000000
007f00
00ff00
00ff00
003c00
007fff
00e7ff
01c3ff
018000
038000
030000
030000
030000
030000
038000
01c018
01fff0
00ffe0
003f80
000000
000000
000000
000000
000000
ENDCHAR
STARTCHAR ghayn isolated
ENCODING 79
SWIDTH 1000 0
DWIDTH 24 0
BBX 24 36 0 -16
BITMAP
000000
000000
000000
004000
00e000
01f000
00e000
004000
000000
000000
00f800
01fc00
038000
030000
030000
038300
01ff00
00fc00
00f000
01c000
038000
070000
060000
060000
060000
060000
070000
038030
03ffe0
01ffc0
007f00
000000
000000
000000
000000
000000
ENDCHAR
STARTCHAR ghayn final
ENCODING 80
SWIDTH 1000 0
DWIDTH 24 0
BBX 24 36 0 -16
BITMAP
000000
000000
000000
000000
000000
001000
003800
007c00
003800
001000
000000
000000
000000
007f00
00ff00
00ff00
003c00
007fff
00e7ff
01c3ff
018000
038000
030000
030000
030000
030000
038000
01c018
01fff0
00ffe0
003f80
000000
000000
000000
000000
000000
ENDCHAR
STARTCHAR faa isolated
ENCODING 81
SWIDTH 1000 0
DWIDTH 24 0
BBX 24 36 0 -16
BITMAP
000200
000700
000f80
000700
000200
000000
000000
0000e0
0001f0
0001b8
040198
0c0198
0801f8
1800f8
180018
180018
1e0078
0ffff0
07ffe0
01ff80
000000
000000
000000
000000
000000
000000
000000
000000
000000
000000
000000
000000
000000
000000
000000
000000
ENDCHAR
STARTCHAR faa final
ENCODING 82
SWIDTH 1000 0
DWIDTH 24 0
BBX 24 36 0 -16
BITMAP
000000
000000
000200
000700
000f80
000700
000200
000000
000000
000000
040070
0c00f8
0801d8
180198
180198
1801f8
1e00f0
0fffff
07ffff
01ff1f
000000
000000
000000
000000
000000
000000
000000
000000
000000
000000
000000
000000
000000
000000
000000
000000
ENDCHAR
STARTCHAR qaaf isolated
ENCODING 83
SWIDTH 1000 0
DWIDTH 24 0
BBX 24 36 0 -16
BITMAP
000000
000000
000000
000840
001ce0
003ff0
001ce0
000840
000000
000000
000380
0107c0
0306e0
060660
040660
0c07e0
0c03e0
0c0060
0c0060
0c0060
0e00e0
0f01c0
07ffc0
03ff80
00fe00
000000
000000
000000
000000
000000
000000
000000
000000
000000
000000
000000
ENDCHAR
STARTCHAR qaaf final
ENCODING 84
SWIDTH 1000 0
DWIDTH 24 0
BBX 24 36 0 -16
BITMAP
000000
000000
000000
000000
000000
001080
0039c0
007fe0
0039c0
001080
000000
020000
060e00
0c1f00
081b80
181980
181980
181fff
180fff
1803ff
1c0380
1e0700
0fff00
07fe00
01f800
000000
000000
000000
000000
000000
000000
000000
000000
000000
000000
000000
ENDCHAR
STARTCHAR kaaf isolated
ENCODING 85
SWIDTH 1000 0
DWIDTH 24 0
BBX 24 36 0 -16
BITMAP
000000
000030
000030
000038
000038
000030
000030
003830
006030
007830
043030
0c6030
084030
180030
180030
180070
1c00f0
1fffe0
0fffc0
03ff00
000000
000000
000000
000000
000000
000000
000000
000000
000000
000000
000000
000000
000000
000000
000000
000000
ENDCHAR
STARTCHAR kaaf initial
ENCODING 86
SWIDTH 1000 0
DWIDTH 24 0
BBX 24 36 0 -16
BITMAP
000000
000000
000000
0000e0
0003e0
000f80
003e00
00f800
01e000
018000
01e000
00f000
007800
003c00
001c00
000e00
000e00
fffe00
fffc00
fff800
000000
000000
000000
000000
000000
000000
000000
000000
000000
000000
000000
000000
000000
000000
000000
000000
ENDCHAR
STARTCHAR kaaf medial
ENCODING 87
SWIDTH 1000 0
DWIDTH 24 0
BBX 24 36 0 -16
BITMAP
000000
000000
000000
0001c0
0007c0
001f00
007c00
01f000
03c000
030000
038000
01c000
00e000
007000
003800
003c00
007e00
ffefff
ffc7ff
ff81ff
000000
000000
000000
000000
000000
000000
000000
000000
000000
000000
000000
000000
000000
000000
000000
000000
ENDCHAR
STARTCHAR kaaf final
ENCODING 88
SWIDTH 1000 0
DWIDTH 24 0
BBX 24 36 0 -16
BITMAP
000000
0000c0
0000c0
0000c0
0000c0
0000c0
0000c0
0070c0
00c0c0
00f0c0
0060c0
08c0c0
0880c0
1800c0
1800c0
1800e0
1c01f0
1fffff
0fff9f
03fe0f
000000
000000
000000
000000
000000
000000
000000
000000
000000
000000
000000
000000
000000
000000
000000
000000
ENDCHAR
STARTCHAR laam isolated
ENCODING 89
SWIDTH 1000 0
DWIDTH 24 0
BBX 24 36 0 -16
BITMAP
000000
000000
000000
000030
000030
000038
000038
000030
000030
000030
000030
000030
000030
000030
000030
040030
040030
0c0030
0c0030
0c0070
0e00e0
0fffe0
07ffc0
03ff00
000000
000000
000000
000000
000000
000000
000000
000000
000000
000000
000000
000000
ENDCHAR
STARTCHAR laam final
ENCODING 90
SWIDTH 1000 0
DWIDTH 24 0
BBX 24 36 0 -16
BITMAP
000000
000000
000000
0000c0
0000c0
0000e0
0000e0
0000c0
0000c0
0000c0
0000c0
0000c0
0000c0
0000c0
0000c0
0000e0
0800f0
0800ff
1800df
1800cf
1c01c0
1fff80
0fff00
07fc00
000000
000000
000000
000000
000000
000000
000000
000000
000000
000000
000000
000000
ENDCHAR
STARTCHAR nuun isolated
ENCODING 91
SWIDTH 1000 0
DWIDTH 24 0
BBX 24 36 0 -16
BITMAP
000000
000000
000000
000000
000000
000000
000000
000000
000800
001c00
003e00
001c00
000800
000000
000000
008000
018060
010070
030030
030030
030030
030030
03c0f0
01ffe0
00ffc0
003f00
000000
000000
000000
000000
000000
000000
000000
000000
000000
000000
ENDCHAR
STARTCHAR nuun final
ENCODING 92
SWIDTH 1000 0
DWIDTH 24 0
BBX 24 36 0 -16
BITMAP
000000
000000
000000
000000
000000
000000
000000
000000
001000
003800
007c00
003800
001000
000000
000000
040020
0c0070
08007f
18007f
18006f
180060
180060
1e01e0
1fffc0
0fff80
03fe00
000000
000000
000000
000000
000000
000000
000000
000000
000000
000000
ENDCHAR
STARTCHAR alif maqSura isolated
ENCODING 93
SWIDTH 1000 0
DWIDTH 24 0
BBX 24 36 0 -16
BITMAP
000000
000000
000000
000000
000000
000000
000000
000000
000000
000000
000000
000000
000000
0000f0
0003f8
0007d8
000e00
040c00
0c0c00
080e00
180f80
1807e0
1803f0
180078
180038
1c0018
1f0078
0ffff8
0ffff0
03ffc0
00ff00
000000
000000
000000
000000
000000
ENDCHAR
STARTCHAR alif maqSura final
ENCODING 94
SWIDTH 1000 0
DWIDTH 24 0
BBX 24 36 0 -16
BITMAP
000000
000000
000000
000000
000000
000000
000000
000000
000000
000000
000000
000000
000000
000000
000000
000000
000000
00000f
04003f
0c007f
080078
18007c
18001e
180007
180003
1c0007
1f003f
0ffffe
0ffffc
03fff0
007f80
000000
000000
000000
000000
000000
ENDCHAR
STARTCHAR yaa isolated
ENCODING 95
SWIDTH 1000 0
DWIDTH 24 0
BBX 24 36 0 -16
BITMAP
000000
000000
000000
000000
000000
000000
000000
000000
000000
000000
000000
000000
000000
0000f0
0003f8
0007d8
000e00
000c00
040c00
0c0e00
080f80
1807e0
1803f0
180078
180038
1c0018
1f0078
0ffff8
0ffff0
03ffc0
00ff00
004200
00e700
01ff80
00e700
004200
ENDCHAR
STARTCHAR yaa final
ENCODING 96
SWIDTH 1000 0
DWIDTH 24 0
BBX 24 36 0 -16
BITMAP
000000
000000
000000
000000
000000
000000
000000
000000
000000
000000
000000
000000
000000
000000
000000
000000
000000
00000f
04003f
0c007f
180078
18007c
18001e
180007
180003
1c0007
1f003f
0ffffe
0ffffc
03fff0
007f80
001080
0039c0
007fe0
0039c0
001080
ENDCHAR
STARTCHAR laam + madda on alif final
ENCODING 97
SWIDTH 1000 0
DWIDTH 24 0
BBX 24 36 0 -16
BITMAP
0e3000
1fe000
31c000
000000
180800
1c0c00
1e0c00
0f0c00
078c00
038c00
01cc00
01ec00
00ec00
006c00
006c00
003c00
003e00
07ffff
1ff3ff
1fc1ff
000000
000000
000000
000000
000000
000000
000000
000000
000000
000000
000000
000000
000000
000000
000000
000000
ENDCHAR
STARTCHAR laam + hamza on alif final
ENCODING 98
SWIDTH 1000 0
DWIDTH 24 0
BBX 24 36 0 -16
BITMAP
01c000
030000
03c000
018000
1a0800
1c0c00
1e0c00
0f0c00
078c00
038c00
01cc00
01ec00
00ec00
006c00
006c00
003c00
003e00
07ffff
1ff3ff
1fc1ff
000000
000000
000000
000000
000000
000000
000000
000000
000000
000000
000000
000000
000000
000000
000000
000000
ENDCHAR
STARTCHAR laam + hamza under alif final
ENCODING 99
SWIDTH 1000 0
DWIDTH 24 0
BBX 24 36 0 -16
BITMAP
000000
000000
000000
000000
180800
1c0c00
1e0c00
0f0c00
078c00
038c00
01cc00
01ec00
00ec00
006c00
006c00
003c00
003e00
07ffff
1ff3ff
1fc1ff
000000
000000
070000
0c0000
0f0000
060000
0c0000
080000
000000
000000
000000
000000
000000
000000
000000
000000
ENDCHAR
STARTCHAR laam + alif final
ENCODING 100
SWIDTH 1000 0
DWIDTH 24 0
BBX 24 36 0 -16
BITMAP
000000
000000
000000
000000
180800
1c0c00
1e0c00
0f0c00
078c00
038c00
01cc00
01ec00
00ec00
006c00
006c00
003c00
003e00
07ffff
1ff3ff
1fc1ff
000000
000000
000000
000000
000000
000000
000000
000000
000000
000000
000000
000000
000000
000000
000000
000000
ENDCHAR
STARTCHAR paa isolated
ENCODING 101
SWIDTH 1000 0
DWIDTH 24 0
BBX 24 36 0 -16
BITMAP
000000
000000
000000
000000
000000
000000
000000
000000
000000
000000
040000
0c0030
080030
180018
180018
180018
1e0078
0ffff0
07ffe0
01ff80
000000
000000
000000
002200
007700
00ff80
007700
002200
000800
001c00
003e00
001c00
000800
000000
000000
000000
ENDCHAR
STARTCHAR paa final
ENCODING 102
SWIDTH 1000 0
DWIDTH 24 0
BBX 24 36 0 -16
BITMAP
000000
000000
000000
000000
000000
000000
000000
000000
000000
000000
040000
0c0000
080000
180008
180018
180018
1e007c
0fffff
07ffef
01ff83
000000
000000
000000
002200
007700
00ff80
007700
002200
000800
001c00
003e00
001c00
000800
000000
000000
000000
ENDCHAR
STARTCHAR chiim isolated
ENCODING 103
SWIDTH 1000 0
DWIDTH 24 0
BBX 24 36 0 -16
BITMAP
000000
000000
000000
000000
000000
000000
000000
000000
000000
000000
000000
000000
070000
0ffff8
1dfff0
107fc0
00f000
00e440
01cee0
019ff0
038ee0
030440
030100
030380
0307c0
030380
038100
01e018
01fff0
007fe0
001f80
000000
000000
000000
000000
000000
ENDCHAR
STARTCHAR chiim initial
ENCODING 104
SWIDTH 1000 0
DWIDTH 24 0
BBX 24 36 0 -16
BITMAP
000000
000000
000000
000000
000000
000000
000000
000000
000000
000000
000000
000000
01fc00
03ff00
020780
0001e0
001ff8
fffff0
ffff00
fff000
000000
000000
000000
002200
007700
00ff80
007700
002200
000800
001c00
003e00
001c00
000800
000000
000000
000000
ENDCHAR
STARTCHAR chiim medial
ENCODING 105
SWIDTH 1000 0
DWIDTH 24 0
BBX 24 36 0 -16
BITMAP
000000
000000
000000
000000
000000
000000
000000
000000
000000
000000
07e000
0ff800
083fc0
000fe0
000780
001e00
007e00
ffffff
ffe3ff
ff81ff
000000
000000
000000
004400
00ee00
01ff00
00ee00
004400
001000
003800
007c00
003800
001000
000000
000000
000000
ENDCHAR
STARTCHAR chiim final
ENCODING 106
SWIDTH 1000 0
DWIDTH 24 0
BBX 24 36 0 -16
BITMAP
000000
000000
000000
000000
000000
000000
000000
000000
000000
000000
000000
000000
070000
0ffff8
1dfff0
107fe0
00f0c0
00c0ff
01c07f
01889f
039dc0
033fe0
031dc0
030880
030200
030700
030f80
038700
01e218
01fff0
007fe0
001f80
000000
000000
000000
000000
ENDCHAR
STARTCHAR gaaf isolated
ENCODING 107
SWIDTH 1000 0
DWIDTH 24 0
BBX 24 36 0 -16
BITMAP
000038
0000f8
0003e0
000f8e
003e3e
0038f8
0003e0
000f80
001e00
001800
001c00
000e00
000700
000380
0001c0
4001c0
4003c0
7fffc0
3fff80
1fff00
000000
000000
000000
000000
000000
000000
000000
000000
000000
000000
000000
000000
000000
000000
000000
000000
ENDCHAR
STARTCHAR gaaf initial
ENCODING 108
SWIDTH 1000 0
DWIDTH 24 0
BBX 24 36 0 -16
BITMAP
0001c0
0007c0
001f00
007c70
01f1f0
01c7c0
001f00
007c00
00f000
00c000
00e000
007000
003800
001c00
000e00
000e00
001e00
fffe00
fffc00
fff800
000000
000000
000000
000000
000000
000000
000000
000000
000000
000000
000000
000000
000000
000000
000000
000000
ENDCHAR
STARTCHAR gaaf medial
ENCODING 109
SWIDTH 1000 0
DWIDTH 24 0
BBX 24 36 0 -16
BITMAP
000700
001f00
007c00
01f1c0
07c7c0
071f00
007c00
01f000
03c000
030000
038000
01c000
00e000
007000
003800
003c00
007e00
ffefff
ffc7ff
ff81ff
000000
000000
000000
000000
000000
000000
000000
000000
000000
000000
000000
000000
000000
000000
000000
000000
ENDCHAR
STARTCHAR gaaf final
ENCODING 110
SWIDTH 1000 0
DWIDTH 24 0
BBX 24 36 0 -16
BITMAP
000070
0001f0
0007c0
001f1c
007c7c
0071f0
0007c0
001f00
003c00
003000
003800
001c00
000e00
000700
000380
1003c0
1007e0
1ffeff
0ffc7f
07f81f
000000
000000
000000
000000
000000
000000
000000
000000
000000
000000
000000
000000
000000
000000
000000
000000
ENDCHAR
ENDFONT
